<svg width="21" height="20" viewBox="0 0 21 20" fill="none"
	xmlns="http://www.w3.org/2000/svg">
	<path
		d="M5.41254 1.72C5.48254 1.66 5.55254 1.6 5.60254 1.56C7.16254 0.55 8.98254 0 10.9825 0C12.8625 0 14.6225 0.5 16.1225 1.42C16.2325 1.5 16.5225 1.69 16.6825 1.88C15.2325 0.28 10.9825 3.7 10.9825 3.7C9.48254 2.57 8.15254 1.8 7.14254 1.5C6.29254 1.29 5.71254 1.5 5.44254 1.7L5.41254 1.72ZM18.3225 3.21C18.2725 3.16 18.2225 3.11 18.1825 3.06C17.8225 2.66 17.3625 2.56 16.9825 2.59C16.5925 2.71 14.8825 3.32 12.7825 5.31C12.7825 5.31 15.1525 7.61 16.6025 9.96C18.0525 12.31 18.9125 14.16 18.3825 16.73C19.9825 14.95 20.9825 12.59 20.9825 10C20.9825 7.38 19.9825 5 18.3225 3.21ZM14.7125 10.96C14.0625 10.24 13.1125 9.21 11.8425 7.95C11.5725 7.68 11.2825 7.4 10.9825 7.1C10.9825 7.1 10.5125 7.56 9.91254 8.17C9.14254 8.94 8.15254 9.95 7.59254 10.54C6.61254 11.59 3.79254 14.89 3.63254 16.74C3.63254 16.74 2.98254 15.28 4.38254 11.89C5.28254 9.68 7.98254 6.36 9.13254 5.28C9.13254 5.28 8.10254 4.14 6.80254 3.35L6.75254 3.32C6.12254 2.95 5.44254 2.66 4.78254 2.62C4.11254 2.67 3.69254 3.16 3.69254 3.16C1.94883 5.01024 0.979194 7.45758 0.982537 10C0.982537 12.6522 2.03611 15.1957 3.91147 17.0711C4.84006 17.9997 5.94245 18.7362 7.1557 19.2388C8.36896 19.7413 9.66932 20 10.9825 20C13.9125 20 16.5525 18.74 18.3825 16.73C18.3825 16.73 18.1725 15.4 16.8225 13.5C16.5125 13.07 15.3525 11.69 14.7125 10.96Z"
		fill="white" />
</svg>