<svg width="21" height="20" viewBox="0 0 21 20" fill="none"
	xmlns="http://www.w3.org/2000/svg">
	<path
		d="M12.7957 20H15.8588C18.6713 20 20.9825 17.6887 20.9825 14.8763V5.12375C20.9825 2.31125 18.6713 0 15.8588 0H12.7338C12.6719 0 12.6069 0.061875 12.6069 0.12375V19.8762C12.6069 19.9381 12.6688 20 12.7957 20ZM16.6075 9.00062C17.7338 9.00062 18.6063 9.93813 18.6063 10.9994C18.6063 12.1256 17.6688 12.9981 16.6075 12.9981C15.4813 12.9981 14.6088 12.1256 14.6088 10.9994C14.5438 9.87625 15.4813 9.00062 16.6075 9.00062ZM10.4813 0H6.10628C3.29378 0 0.982529 2.31125 0.982529 5.12375V14.8763C0.982529 17.6887 3.29378 20 6.10628 20H10.4813C10.5432 20 10.6082 19.9381 10.6082 19.8762V0.12375C10.6082 0.061875 10.5463 0 10.4813 0ZM9.04565 18.3756H6.10628C5.64653 18.3764 5.19115 18.2864 4.76625 18.1108C4.34135 17.9352 3.95529 17.6774 3.63019 17.3523C3.3051 17.0272 3.04737 16.6412 2.87177 16.2163C2.69617 15.7914 2.60616 15.336 2.6069 14.8763V5.12375C2.60616 4.664 2.69617 4.20862 2.87177 3.78372C3.04737 3.35882 3.3051 2.97276 3.63019 2.64767C3.95529 2.32257 4.34135 2.06484 4.76625 1.88924C5.19115 1.71364 5.64653 1.62363 6.10628 1.62437H8.98378L9.04565 18.3756ZM4.10753 5.99937C4.10753 7.06063 4.92128 7.87437 5.98253 7.87437C7.04378 7.87437 7.85753 7.06063 7.85753 5.99937C7.85753 4.93813 7.04378 4.12437 5.98253 4.12437C4.92128 4.12437 4.10753 4.93813 4.10753 5.99937Z"
		fill="white" />
</svg>