<svg width="27" height="20" viewBox="0 0 27 20" fill="none"
	xmlns="http://www.w3.org/2000/svg">
	<path
		d="M26.6654 15.3065C26.1584 15.9462 24.9179 16.4013 24.9179 16.4013L15.6928 19.715V17.271L22.482 14.853C23.2529 14.5777 23.3712 14.1858 22.7444 13.9817C22.1192 13.776 20.9872 13.8359 20.2179 14.1113L15.6928 15.7049V13.1687L15.9536 13.0812C15.9536 13.0812 17.2606 12.618 19.0988 12.414C20.937 12.2115 23.1882 12.4415 24.9551 13.1104C26.9472 13.742 27.1707 14.6684 26.6654 15.3065ZM16.5706 11.1475V4.89594C16.5706 4.16228 16.4362 3.48692 15.7479 3.29581C15.2199 3.12576 14.8928 3.61649 14.8928 4.34853V20L10.6722 18.6606V0C12.4666 0.33363 15.0806 1.12074 16.4864 1.59527C20.0608 2.82128 21.2722 4.34853 21.2722 7.7901C21.2722 11.1442 19.2024 12.4156 16.5706 11.1458V11.1475ZM2.92741 17.0184C0.883523 16.4386 0.543414 15.2401 1.47466 14.5502C2.33627 13.9121 3.80036 13.4327 3.80036 13.4327L9.85267 11.2786V13.7323L5.49604 15.2919C4.72837 15.5673 4.61014 15.9576 5.23529 16.1632C5.86044 16.3673 6.99252 16.309 7.76181 16.0337L9.85105 15.2741V17.4702L9.43482 17.5399C7.25524 17.8928 5.02264 17.7133 2.92741 17.0168V17.0184Z"
		fill="white" />
</svg>