<svg width="24" height="24" viewBox="0 0 24 24" fill="none" xmlns="http://www.w3.org/2000/svg">
<path d="M18.7937 12.6832C18.7822 10.7159 19.6702 9.2333 21.4634 8.14007C20.4605 6.69782 18.9432 5.90458 16.9431 5.7517C15.0493 5.60171 12.9774 6.85935 12.2188 6.85935C11.417 6.85935 9.58362 5.80362 8.14103 5.80362C5.16391 5.84977 2 8.18622 2 12.9399C2 14.3446 2.25576 15.7955 2.76727 17.2897C3.4512 19.2569 5.91681 24.0769 8.48875 23.9991C9.83362 23.9673 10.7848 23.0414 12.5349 23.0414C14.2332 23.0414 15.1126 23.9991 16.6126 23.9991C19.2075 23.9616 21.4375 19.58 22.087 17.607C18.6069 15.96 18.7937 12.7841 18.7937 12.6832ZM15.7735 3.88543C17.2305 2.14895 17.0983 0.568247 17.0552 0C15.7678 0.0749971 14.2792 0.879774 13.4315 1.86916C12.4975 2.93066 11.9486 4.2431 12.0665 5.72285C13.4573 5.82958 14.7275 5.11134 15.7735 3.88543Z" fill="white"/>
</svg>
