<svg width="16" height="23" viewBox="0 0 16 23" fill="none" xmlns="http://www.w3.org/2000/svg">
<path fill-rule="evenodd" clip-rule="evenodd" d="M12.1111 21.4573H3.22222C1.99444 21.4573 1 20.4628 1 19.2351V3.6795C1 2.45172 1.99444 1.45728 3.22222 1.45728H12.1111C13.3389 1.45728 14.3333 2.45172 14.3333 3.6795V19.2351C14.3333 20.4628 13.3389 21.4573 12.1111 21.4573Z" stroke="white" stroke-width="1.5" stroke-linecap="round" stroke-linejoin="round"/>
<path d="M7.66553 17.2906C7.5122 17.2906 7.38775 17.415 7.38887 17.5684C7.38887 17.7217 7.51331 17.8462 7.66664 17.8462C7.81998 17.8462 7.94442 17.7217 7.94442 17.5684C7.94442 17.415 7.81998 17.2906 7.66553 17.2906" stroke="white" stroke-width="1.5" stroke-linecap="round" stroke-linejoin="round"/>
<path d="M6.27783 4.79066H9.05561" stroke="white" stroke-width="1.5" stroke-linecap="round" stroke-linejoin="round"/>
</svg>
