<svg width="21" height="20" viewBox="0 0 21 20" fill="none" xmlns="http://www.w3.org/2000/svg">
<path opacity="0.6" fill-rule="evenodd" clip-rule="evenodd" d="M4.74856 10.7883C2.67702 10.79 0.998896 12.4704 1 14.5419C1.00111 16.6134 2.68102 18.292 4.75256 18.2915C6.8241 18.2909 8.50313 16.6114 8.50313 14.5399C8.50286 13.5445 8.10711 12.59 7.40296 11.8864C6.69882 11.1828 5.74398 10.7878 4.74856 10.7883Z" stroke="#00AEFF" stroke-width="2"/>
<path fill-rule="evenodd" clip-rule="evenodd" d="M15.247 10.7883C13.1754 10.79 11.4973 12.4704 11.4984 14.5419C11.4995 16.6134 13.1794 18.292 15.251 18.2915C17.3225 18.2909 19.0015 16.6114 19.0015 14.5399C19.0013 13.5445 18.6055 12.59 17.9014 11.8864C17.1972 11.1828 16.2424 10.7878 15.247 10.7883V10.7883Z" stroke="#00AEFF" stroke-width="2"/>
<path opacity="0.8" fill-rule="evenodd" clip-rule="evenodd" d="M9.99771 1.7085C7.92617 1.71015 6.24804 3.39052 6.24915 5.46206C6.25025 7.5336 7.93017 9.21217 10.0017 9.21162C12.0732 9.21107 13.7523 7.5316 13.7523 5.46006C13.752 4.46464 13.3563 3.51012 12.6521 2.80654C11.948 2.10295 10.9931 1.70797 9.99771 1.7085Z" stroke="#00AEFF" stroke-width="2"/>
</svg>
