<svg width="15" height="17" viewBox="0 0 15 17" fill="none" xmlns="http://www.w3.org/2000/svg">
<path d="M13.5398 15.9664L13.1826 15.0695C13.0021 14.6145 12.7215 14.2064 12.3623 13.8737L12.297 13.8136C11.7318 13.2891 10.989 12.9973 10.2177 12.9973H5.10191C4.33057 12.9973 3.58779 13.2891 3.02153 13.8125L2.95623 13.8737C2.59709 14.2064 2.31752 14.6145 2.13591 15.0695L1.77881 15.9664" stroke="white" stroke-width="1.77404" stroke-linecap="round" stroke-linejoin="round"/>
<path d="M10.1848 2.81998C11.5793 4.21456 11.5793 6.47561 10.1848 7.87019C8.79019 9.26477 6.52914 9.26477 5.13456 7.87019C3.73998 6.47561 3.73998 4.21456 5.13456 2.81998C6.52914 1.4254 8.79019 1.4254 10.1848 2.81998" stroke="white" stroke-width="1.77404" stroke-linecap="round" stroke-linejoin="round"/>
</svg>
