<svg width="64" height="64" viewBox="0 0 64 64" fill="none"
	xmlns="http://www.w3.org/2000/svg">
	<rect width="64" height="64" rx="12" fill="#0D090B" />
	<path opacity="0.6" fill-rule="evenodd" clip-rule="evenodd"
		d="M31.8446 20H20.9834C14.9174 20 10 24.9249 10 31C10 37.0751 14.9174 42 20.9834 42H31.8446V37.6831H20.9834C17.298 37.6831 14.3104 34.691 14.3104 31C14.3104 27.309 17.298 24.3169 20.9834 24.3169H31.8446V20Z"
		fill="#00AEFF" />
	<path fill-rule="evenodd" clip-rule="evenodd"
		d="M43.0166 24.3169H32.0332C28.3478 24.3169 25.3602 27.309 25.3602 31C25.3602 34.691 28.3478 37.6831 32.0332 37.6831H43.0166C46.702 37.6831 49.6896 34.691 49.6896 31C49.6896 27.309 46.702 24.3169 43.0166 24.3169ZM32.0332 20C25.9672 20 21.0498 24.9249 21.0498 31C21.0498 37.0751 25.9673 42 32.0332 42H43.0166C49.0826 42 54 37.0751 54 31C54 24.9249 49.0826 20 43.0166 20H32.0332Z"
		fill="#00AEFF" />
</svg>